<?xml version="1.0" encoding="UTF-8"?>
<svg xmlns="http://www.w3.org/2000/svg" xmlns:xlink="http://www.w3.org/1999/xlink" width="375pt" height="374.999991pt" viewBox="0 0 375 374.999991" version="1.2">
<defs>
<clipPath id="clip1">
  <path d="M 201 141 L 302.046875 141 L 302.046875 302 L 201 302 Z M 201 141 "/>
</clipPath>
<clipPath id="clip2">
  <path d="M 202 307 L 302.046875 307 L 302.046875 375 L 202 375 Z M 202 307 "/>
</clipPath>
<clipPath id="clip3">
  <path d="M 73.296875 145 L 181 145 L 181 316 L 73.296875 316 Z M 73.296875 145 "/>
</clipPath>
</defs>
<g id="surface1">
<path style="fill-rule:evenodd;fill:rgb(89.408875%,82.749939%,69.40918%);fill-opacity:1;stroke-width:1.79;stroke-linecap:round;stroke-linejoin:round;stroke:rgb(0%,0%,0%);stroke-opacity:1;stroke-miterlimit:4;" d="M 396.129616 394.949495 C 394.82972 397.674295 391.461397 399.307095 388.608885 398.594695 C 385.755077 397.883595 384.496654 395.097695 385.797846 392.372894 C 387.097741 389.648094 390.466064 388.016594 393.318576 388.727694 C 396.172384 389.440094 397.430807 392.224694 396.129616 394.949495 Z M 396.129616 394.949495 " transform="matrix(3.014065,0,0,3.004807,-904.10096,-909.735468)"/>
<path style=" stroke:none;fill-rule:nonzero;fill:rgb(25.878906%,59.21936%,72.938538%);fill-opacity:1;" d="M 238.953125 275.660156 C 241.539062 282.496094 291 264.476562 288.523438 256.621094 C 265.183594 156.40625 242.390625 165.199219 233.675781 167.144531 C 220.640625 177.167969 224.484375 211.761719 238.949219 275.660156 Z M 238.953125 275.660156 "/>
<g clip-path="url(#clip1)" clip-rule="nonzero">
<path style="fill:none;stroke-width:1.427;stroke-linecap:butt;stroke-linejoin:miter;stroke:rgb(0%,0%,0%);stroke-opacity:1;stroke-miterlimit:4;" d="M 379.240049 394.499695 C 380.098005 396.774695 396.50805 390.777794 395.686381 388.163494 C 387.942738 354.811991 380.380535 357.738292 377.489143 358.385692 C 373.164366 361.721492 374.439638 373.234293 379.238753 394.499695 Z M 379.240049 394.499695 " transform="matrix(3.014065,0,0,3.004807,-904.10096,-909.735468)"/>
</g>
<path style="fill-rule:evenodd;fill:rgb(54.899597%,54.119873%,57.649231%);fill-opacity:1;stroke-width:1.711;stroke-linecap:round;stroke-linejoin:round;stroke:rgb(0%,0%,0%);stroke-opacity:1;stroke-miterlimit:4;" d="M 363.739584 391.430394 L 364.613092 391.430394 C 365.430873 391.430394 366.246042 391.444694 367.059898 391.471994 C 367.873751 391.500594 368.682401 391.543494 369.484554 391.599394 C 370.286704 391.656594 371.078469 391.726794 371.861143 391.811294 C 372.643818 391.894494 373.413514 391.991994 374.168935 392.102494 C 374.924355 392.214294 375.662911 392.337794 376.383306 392.474294 C 377.104996 392.610794 377.805934 392.758994 378.486118 392.920194 C 379.165007 393.081394 379.821849 393.252994 380.454051 393.436294 C 381.086251 393.620894 381.691223 393.814594 382.268963 394.019994 C 382.848 394.224094 383.395919 394.438595 383.915314 394.662195 C 384.433412 394.885795 384.920394 395.118495 385.374965 395.358995 C 385.829536 395.599495 386.249105 395.847795 386.634966 396.103895 C 387.019534 396.358695 387.3691 396.619995 387.682369 396.887795 C 387.995638 397.155595 388.270022 397.427295 388.50811 397.704195 C 388.744903 397.981095 388.944105 398.261895 389.103127 398.546595 C 389.26215 398.829995 389.382289 399.115995 389.462249 399.404595 C 389.543504 399.693195 389.583288 399.981795 389.582895 400.270395 L 389.582668 414.717296 C 389.583569 415.007196 389.543 415.295796 389.462256 415.583096 C 389.382807 415.871696 389.263185 416.157696 389.10339 416.441096 C 388.943594 416.725796 388.744922 417.006596 388.507376 417.283496 C 388.26983 417.560396 387.994706 417.832096 387.682004 418.099896 C 387.369302 418.367696 387.02032 418.628996 386.635057 418.885096 C 386.2485 419.139896 385.829552 419.388196 385.374326 419.628696 C 384.920396 419.869196 384.434076 420.101897 383.915369 420.325497 C 383.396662 420.549097 382.848158 420.763597 382.26986 420.968997 C 381.691562 421.173097 381.086063 421.366797 380.45336 421.551397 C 379.821955 421.734697 379.16594 421.907597 378.485319 422.067497 C 377.805992 422.228697 377.10465 422.376897 376.383884 422.513397 C 375.663118 422.649897 374.924224 422.774697 374.168501 422.885197 C 373.412779 422.995697 372.644114 423.093197 371.86121 423.177697 C 371.078308 423.260897 370.286352 423.331097 369.484046 423.388297 C 368.681741 423.444197 367.87427 423.487097 367.060339 423.515697 C 366.246407 423.544297 365.431199 423.558597 364.613419 423.558597 L 363.73991 423.558597 C 362.922129 423.558597 362.10696 423.544297 361.293106 423.515697 C 360.479253 423.487097 359.670603 423.444197 358.86845 423.388297 C 358.0663 423.331097 357.274535 423.260897 356.49186 423.177697 C 355.709186 423.093197 354.939491 422.995697 354.184069 422.885197 C 353.428647 422.774697 352.690093 422.649897 351.969698 422.513397 C 351.248008 422.376897 350.54707 422.228697 349.866886 422.067497 C 349.187995 421.907597 348.531155 421.734697 347.898953 421.551397 C 347.266753 421.366797 346.661781 421.173097 346.08404 420.968997 C 345.505004 420.763597 344.957085 420.549097 344.43769 420.325497 C 343.919592 420.101897 343.43261 419.869196 342.978039 419.628696 C 342.523468 419.388196 342.103899 419.139896 341.718036 418.885096 C 341.33347 418.628996 340.983904 418.367696 340.670635 418.099896 C 340.357366 417.832096 340.082982 417.560396 339.844894 417.283496 C 339.608101 417.006596 339.408899 416.725796 339.249877 416.441096 C 339.090854 416.157696 338.970715 415.871696 338.890755 415.583096 C 338.809498 415.295796 338.769715 415.007196 338.770109 414.717296 L 338.770337 400.270395 C 338.769433 399.981795 338.810003 399.693195 338.890748 399.404595 C 338.970197 399.115995 339.089819 398.829995 339.249614 398.546595 C 339.40941 398.261895 339.608082 397.981095 339.845628 397.704195 C 340.083174 397.427295 340.358298 397.155595 340.671 396.887795 C 340.983702 396.619995 341.332684 396.358695 341.717945 396.103895 C 342.104504 395.847795 342.523452 395.599495 342.978678 395.358995 C 343.432608 395.118495 343.918928 394.885795 344.437635 394.662195 C 344.956343 394.438595 345.504846 394.224094 346.083143 394.019994 C 346.661442 393.814594 347.266941 393.620894 347.899644 393.436294 C 348.531049 393.252994 349.187062 393.081394 349.867685 392.920194 C 350.547013 392.758994 351.248354 392.610794 351.96912 392.474294 C 352.689886 392.337794 353.428778 392.214294 354.184503 392.102494 C 354.940225 391.991994 355.70889 391.894494 356.491792 391.811294 C 357.274696 391.726794 358.066652 391.656594 358.868958 391.599394 C 359.671263 391.543494 360.478734 391.500594 361.292665 391.471994 C 362.106595 391.444694 362.921803 391.430394 363.739584 391.430394 Z M 363.739584 391.430394 " transform="matrix(3.014065,0,0.00410322,3.004807,-904.10096,-909.735468)"/>
<path style="fill-rule:nonzero;fill:rgb(100%,100%,100%);fill-opacity:1;stroke-width:1.135;stroke-linecap:round;stroke-linejoin:round;stroke:rgb(0%,0%,0%);stroke-opacity:1;stroke-miterlimit:4;" d="M 375.63974 421.889397 L 375.380539 411.696096 " transform="matrix(3.014065,0,0,3.004807,-904.10096,-909.735468)"/>
<path style="fill-rule:evenodd;fill:rgb(50.979614%,73.329163%,82.749939%);fill-opacity:1;stroke-width:1.717;stroke-linecap:round;stroke-linejoin:round;stroke:rgb(0%,0%,0%);stroke-opacity:1;stroke-miterlimit:4;" d="M 367.149597 353.129791 C 367.061468 353.128491 366.972044 353.131091 366.883915 353.129791 C 366.833371 353.129791 366.782826 353.120691 366.732282 353.120691 C 366.654522 353.120691 366.575465 353.111591 366.497705 353.111591 L 366.497705 353.132391 C 360.541255 353.341691 354.923064 357.050592 351.094658 361.811192 C 342.889636 371.945993 339.486321 385.469894 338.849981 398.511495 C 338.96403 401.861595 338.242154 405.864295 339.470769 408.798396 C 344.144171 412.054896 352.52545 412.780296 358.229178 413.651296 C 359.745507 413.760496 362.158672 413.838496 364.776607 413.916496 L 364.776607 413.925596 C 365.052657 413.934696 365.313154 413.934696 365.585316 413.941196 C 365.611236 413.941196 365.637156 413.941196 365.664372 413.941196 C 368.284899 413.986696 370.698065 414.024396 372.219577 413.986696 C 377.963481 413.388696 386.374569 413.062396 391.225524 410.032096 C 392.618732 407.161695 392.124953 403.130395 392.426923 399.789395 C 392.530603 386.736094 389.897117 373.069193 382.276594 362.556092 C 378.721646 357.619992 373.321183 353.648491 367.384174 353.157091 L 367.384174 353.127191 C 367.306413 353.127191 367.227357 353.118091 367.149597 353.118091 Z M 367.149597 353.129791 " transform="matrix(3.014065,0,0,3.004807,-904.10096,-909.735468)"/>
<path style=" stroke:none;fill-rule:nonzero;fill:rgb(25.099182%,25.099182%,25.099182%);fill-opacity:1;" d="M 298.78125 355.257812 C 298.78125 355.257812 294.613281 335.601562 268.671875 337.910156 C 233.777344 341.011719 232.777344 360.820312 232.777344 360.820312 C 230.734375 366.957031 300.523438 363.289062 298.78125 355.257812 Z M 298.78125 355.257812 "/>
<g clip-path="url(#clip2)" clip-rule="nonzero">
<path style="fill:none;stroke-width:1.79;stroke-linecap:butt;stroke-linejoin:miter;stroke:rgb(0%,0%,0%);stroke-opacity:1;stroke-miterlimit:4;" d="M 399.089696 420.989797 C 399.089696 420.989797 397.706857 414.448196 389.100072 415.216496 C 377.522839 416.248696 377.191061 422.840997 377.191061 422.840997 C 376.513249 424.883297 399.667716 423.662597 399.089696 420.989797 Z M 399.089696 420.989797 " transform="matrix(3.014065,0,0,3.004807,-904.10096,-909.735468)"/>
</g>
<path style="fill-rule:evenodd;fill:rgb(89.408875%,82.749939%,69.40918%);fill-opacity:1;stroke-width:1.79;stroke-linecap:round;stroke-linejoin:round;stroke:rgb(0%,0%,0%);stroke-opacity:1;stroke-miterlimit:4;" d="M 336.25019 401.939595 C 337.990728 404.406995 341.584556 405.449595 344.27766 404.267895 C 346.970763 403.086195 347.741887 400.127395 346.001349 397.661295 C 344.260812 395.193895 340.666983 394.151294 337.97388 395.332995 C 335.280777 396.514695 334.509653 399.473495 336.25019 401.939595 Z M 336.25019 401.939595 " transform="matrix(3.014065,0,0,3.004807,-904.10096,-909.735468)"/>
<path style=" stroke:none;fill-rule:nonzero;fill:rgb(25.878906%,59.21936%,72.938538%);fill-opacity:1;" d="M 147.445312 286.628906 C 145.304688 294.117188 87.449219 281.203125 89.351562 272.660156 C 104.308594 164.652344 131.023438 171.113281 141.078125 172.097656 C 157.324219 175.605469 156.515625 217.8125 147.445312 286.628906 Z M 147.445312 286.628906 "/>
<g clip-path="url(#clip3)" clip-rule="nonzero">
<path style="fill:none;stroke-width:1.562;stroke-linecap:butt;stroke-linejoin:miter;stroke:rgb(0%,0%,0%);stroke-opacity:1;stroke-miterlimit:4;" d="M 348.879782 398.150095 C 348.16957 400.642195 328.974405 396.344395 329.605561 393.501294 C 334.567973 357.556292 343.431367 359.706492 346.76729 360.034092 C 352.157384 361.201492 351.889111 375.247993 348.879782 398.150095 Z M 348.879782 398.150095 " transform="matrix(3.014065,0,0,3.004807,-904.10096,-909.735468)"/>
</g>
<path style="fill-rule:evenodd;fill:rgb(89.408875%,82.749939%,69.40918%);fill-opacity:1;stroke-width:1.79;stroke-linecap:round;stroke-linejoin:bevel;stroke:rgb(0%,0%,0%);stroke-opacity:1;stroke-miterlimit:4;" d="M 361.194443 311.250288 L 363.87977 311.250288 C 364.370957 311.250288 364.860848 311.260688 365.350738 311.281488 C 365.841925 311.302288 366.33052 311.333488 366.819115 311.375088 C 367.307709 311.416688 367.793712 311.468688 368.279715 311.531088 C 368.764422 311.593488 369.247832 311.666288 369.729947 311.748188 C 370.210766 311.831388 370.688992 311.924988 371.165923 312.027688 C 371.641558 312.131688 372.1146 312.244788 372.583755 312.368288 C 373.05291 312.490488 373.519472 312.624388 373.980851 312.767388 C 374.443526 312.910388 374.901016 313.063788 375.354619 313.226288 C 375.808221 313.388788 376.25664 313.560388 376.699874 313.742388 C 377.143109 313.924388 377.581159 314.114188 378.014026 314.314388 C 378.446892 314.514588 378.873279 314.725188 379.294481 314.942288 C 379.715683 315.161988 380.130406 315.388188 380.538648 315.624788 C 380.945594 315.860088 381.347356 316.104488 381.741343 316.357988 C 382.135329 316.611488 382.522835 316.872788 382.901269 317.141888 C 383.280999 317.410989 383.652953 317.689189 384.015836 317.973889 C 384.380014 318.259889 384.73512 318.552389 385.08245 318.852689 C 385.428483 319.152989 385.766741 319.461089 386.097223 319.775689 C 386.426409 320.090289 386.746523 320.411389 387.057565 320.740289 C 387.368606 321.067889 387.670576 321.403289 387.963474 321.743889 C 388.255075 322.085789 388.537605 322.432889 388.811063 322.786489 C 389.083224 323.138789 389.346314 323.497589 389.597739 323.862889 C 389.85046 324.226889 390.091518 324.596089 390.323503 324.970489 C 390.554192 325.346189 390.77581 325.724489 390.985763 326.109289 C 391.19442 326.492789 391.394005 326.881489 391.581926 327.274089 C 391.769847 327.666689 391.946104 328.061889 392.110697 328.462289 C 392.276586 328.862689 392.430811 329.265689 392.573372 329.672589 C 392.715933 330.07819 392.845533 330.48769 392.964766 330.89979 C 393.083999 331.31189 393.191567 331.72659 393.287472 332.14259 C 393.383376 332.55989 393.467617 332.97849 393.538897 333.39839 C 393.611474 333.81829 393.67109 334.23949 393.719042 334.66329 C 393.76829 335.08579 393.803283 335.50959 393.827907 335.93339 C 393.852531 336.35719 393.864195 336.78229 393.864195 337.20739 L 393.864195 338.99749 C 393.864195 339.42129 393.852531 339.84639 393.827907 340.27019 C 393.803283 340.69529 393.76829 341.11909 393.719042 341.54159 C 393.67109 341.96409 393.611474 342.38529 393.538897 342.80519 C 393.467617 343.226391 393.383376 343.643691 393.287472 344.060991 C 393.191567 344.476991 393.083999 344.891691 392.964766 345.303791 C 392.845533 345.715891 392.714637 346.125391 392.573372 346.532291 C 392.430811 346.937891 392.276586 347.342191 392.110697 347.741291 C 391.946104 348.141691 391.769847 348.538191 391.581926 348.930791 C 391.394005 349.323391 391.19442 349.710791 390.985763 350.095591 C 390.77581 350.479091 390.554192 350.858691 390.323503 351.233091 C 390.091518 351.607491 389.85046 351.976691 389.597739 352.341991 C 389.346314 352.705991 389.083224 353.064791 388.811063 353.418391 C 388.537605 353.770691 388.255075 354.117791 387.963474 354.459691 C 387.670576 354.800291 387.368606 355.135691 387.057565 355.464591 C 386.746523 355.792191 386.426409 356.114592 386.097223 356.429192 C 385.766741 356.743792 385.428483 357.050592 385.08245 357.350892 C 384.73512 357.651192 384.380014 357.944992 384.015836 358.229692 C 383.652953 358.515692 383.280999 358.792592 382.901269 359.061692 C 382.522835 359.332092 382.135329 359.593392 381.741343 359.845592 C 381.347356 360.099092 380.945594 360.343492 380.538648 360.578792 C 380.130406 360.815392 379.715683 361.042892 379.294481 361.261292 C 378.873279 361.479692 378.446892 361.688992 378.014026 361.889192 C 377.581159 362.089392 377.143109 362.280492 376.699874 362.461192 C 376.25664 362.643192 375.808221 362.816092 375.354619 362.978592 C 374.901016 363.141092 374.443526 363.293192 373.980851 363.436192 C 373.519472 363.579192 373.05291 363.713092 372.583755 363.836592 C 372.1146 363.960092 371.641558 364.073192 371.165923 364.175892 C 370.688992 364.279892 370.210766 364.372192 369.729947 364.455392 C 369.247832 364.538592 368.764422 364.610092 368.279715 364.672492 C 367.793712 364.734892 367.307709 364.786892 366.819115 364.828492 C 366.33052 364.870092 365.841925 364.901292 365.350738 364.922092 C 364.860848 364.942892 364.370957 364.954592 363.87977 364.954592 L 361.194443 364.954592 C 360.703256 364.954592 360.213365 364.942892 359.722179 364.922092 C 359.232288 364.901292 358.743693 364.870092 358.255098 364.828492 C 357.766504 364.786892 357.279205 364.734892 356.794498 364.672492 C 356.308495 364.610092 355.825085 364.538592 355.344266 364.455392 C 354.863447 364.372192 354.383925 364.279892 353.90829 364.175892 C 353.432655 364.073192 352.959613 363.960092 352.490458 363.836592 C 352.020007 363.713092 351.554741 363.579192 351.092066 363.436192 C 350.630687 363.293192 350.173197 363.141092 349.719594 362.978592 C 349.265992 362.816092 348.817573 362.643192 348.374339 362.462492 C 347.931104 362.280492 347.491758 362.089392 347.060187 361.889192 C 346.627321 361.688992 346.199638 361.479692 345.779732 361.261292 C 345.35853 361.042892 344.943807 360.815392 344.535565 360.578792 C 344.127323 360.343492 343.726857 360.099092 343.33287 359.845592 C 342.938884 359.593392 342.551378 359.332092 342.172944 359.061692 C 341.793214 358.792592 341.42126 358.515692 341.058378 358.229692 C 340.694199 357.944992 340.339093 357.651192 339.991764 357.350892 C 339.64573 357.050592 339.307472 356.743792 338.97699 356.429192 C 338.647804 356.114592 338.32769 355.792191 338.016648 355.464591 C 337.704311 355.135691 337.402341 354.800291 337.110739 354.459691 C 336.817842 354.117791 336.535312 353.770691 336.263151 353.418391 C 335.990989 353.064791 335.727899 352.705991 335.476474 352.341991 C 335.223753 351.976691 334.981399 351.607491 334.75071 351.233091 C 334.518725 350.858691 334.298403 350.479091 334.08845 350.095591 C 333.878497 349.710791 333.680208 349.323391 333.492287 348.930791 C 333.304366 348.538191 333.128109 348.141691 332.96222 347.741291 C 332.797627 347.342191 332.643402 346.937891 332.500841 346.532291 C 332.358281 346.125391 332.227384 345.715891 332.108151 345.303791 C 331.988918 344.891691 331.88135 344.476991 331.786741 344.060991 C 331.690837 343.643691 331.606596 343.226391 331.53402 342.80519 C 331.462739 342.38529 331.401827 341.96409 331.353875 341.54159 C 331.305923 341.11909 331.269634 340.69529 331.246306 340.27019 C 331.221682 339.84639 331.210018 339.42129 331.210018 338.99749 L 331.210018 337.20739 C 331.210018 336.78229 331.221682 336.35719 331.246306 335.93339 C 331.269634 335.50959 331.305923 335.08579 331.353875 334.66329 C 331.401827 334.23949 331.462739 333.81829 331.53402 333.39839 C 331.606596 332.97849 331.690837 332.55989 331.786741 332.14259 C 331.88135 331.72659 331.988918 331.31189 332.108151 330.89979 C 332.227384 330.48769 332.358281 330.07819 332.500841 329.672589 C 332.643402 329.265689 332.797627 328.862689 332.96222 328.462289 C 333.128109 328.061889 333.304366 327.666689 333.492287 327.274089 C 333.680208 326.881489 333.878497 326.492789 334.08845 326.109289 C 334.298403 325.724489 334.518725 325.346189 334.75071 324.970489 C 334.981399 324.596089 335.223753 324.226889 335.476474 323.862889 C 335.727899 323.497589 335.990989 323.138789 336.263151 322.786489 C 336.535312 322.432889 336.817842 322.085789 337.110739 321.743889 C 337.402341 321.403289 337.704311 321.067889 338.016648 320.740289 C 338.32769 320.411389 338.647804 320.090289 338.97699 319.775689 C 339.307472 319.461089 339.64573 319.152989 339.991764 318.852689 C 340.339093 318.552389 340.694199 318.259889 341.058378 317.973889 C 341.42126 317.689189 341.793214 317.410989 342.172944 317.141888 C 342.551378 316.872788 342.938884 316.611488 343.33287 316.357988 C 343.726857 316.104488 344.127323 315.860088 344.535565 315.624788 C 344.943807 315.388188 345.35853 315.161988 345.779732 314.942288 C 346.199638 314.725188 346.627321 314.514588 347.060187 314.314388 C 347.491758 314.114188 347.931104 313.924388 348.374339 313.742388 C 348.817573 313.560388 349.265992 313.388788 349.719594 313.226288 C 350.173197 313.063788 350.630687 312.910388 351.092066 312.767388 C 351.554741 312.624388 352.020007 312.490488 352.490458 312.368288 C 352.959613 312.244788 353.432655 312.131688 353.90829 312.027688 C 354.383925 311.924988 354.863447 311.831388 355.344266 311.748188 C 355.825085 311.666288 356.308495 311.593488 356.794498 311.531088 C 357.279205 311.468688 357.766504 311.416688 358.255098 311.375088 C 358.743693 311.333488 359.232288 311.302288 359.722179 311.281488 C 360.213365 311.260688 360.703256 311.250288 361.194443 311.250288 Z M 361.194443 311.250288 " transform="matrix(3.014065,0,0,3.004807,-904.10096,-909.735468)"/>
<path style="fill-rule:nonzero;fill:rgb(25.099182%,25.099182%,25.099182%);fill-opacity:1;stroke-width:1.79;stroke-linecap:butt;stroke-linejoin:miter;stroke:rgb(0%,0%,0%);stroke-opacity:1;stroke-miterlimit:4;" d="M 340.050084 423.139997 C 340.050084 423.139997 341.020793 414.939596 353.374335 415.493396 C 369.990445 416.239596 371.464005 424.424397 371.464005 424.424397 C 372.739276 426.933397 339.635362 426.492697 340.050084 423.139997 Z M 340.050084 423.139997 " transform="matrix(3.014065,0,0,3.004807,-904.10096,-909.735468)"/>
<path style="fill-rule:nonzero;fill:rgb(100%,100%,100%);fill-opacity:1;stroke-width:1.547;stroke-linecap:round;stroke-linejoin:round;stroke:rgb(0%,0%,0%);stroke-opacity:1;stroke-miterlimit:4;" d="M 372.189769 351.480091 L 377.985514 350.915891 " transform="matrix(3.014065,0,0,3.004807,-904.10096,-909.735468)"/>
<path style=" stroke:none;fill-rule:nonzero;fill:rgb(0%,0%,0%);fill-opacity:1;" d="M 195.429688 110.304688 C 195.933594 115.480469 192.140625 120.082031 186.945312 120.585938 C 181.757812 121.089844 177.140625 117.304688 176.632812 112.128906 C 176.128906 106.957031 179.929688 102.351562 185.117188 101.847656 C 190.3125 101.34375 194.925781 105.132812 195.429688 110.304688 "/>
<path style=" stroke:none;fill-rule:nonzero;fill:rgb(0%,0%,0%);fill-opacity:1;" d="M 259.75 102.703125 C 260.253906 107.878906 256.460938 112.480469 251.265625 112.984375 C 246.078125 113.488281 241.460938 109.703125 240.953125 104.527344 C 240.449219 99.355469 244.25 94.75 249.4375 94.246094 C 254.632812 93.742188 259.246094 97.53125 259.75 102.703125 "/>
<path style="fill:none;stroke-width:1.388;stroke-linecap:round;stroke-linejoin:round;stroke:rgb(0%,0%,0%);stroke-opacity:1;stroke-miterlimit:4;" d="M 337.800215 346.789691 C 336.939666 347.568391 335.41945 347.232991 334.490213 346.285291 C 333.211053 344.977491 333.31603 343.087291 334.41634 342.11359 C 335.057864 341.54679 335.975437 341.30109 336.926706 341.39469 " transform="matrix(3.014065,0,0,3.004807,-904.10096,-909.735468)"/>
<path style="fill-rule:evenodd;fill:rgb(82.348633%,78.42865%,48.629761%);fill-opacity:1;stroke-width:1.763;stroke-linecap:round;stroke-linejoin:bevel;stroke:rgb(0%,0%,0.779724%);stroke-opacity:1;stroke-miterlimit:4;" d="M 353.069773 308.659388 C 336.038941 312.915588 325.222464 328.034589 328.431378 342.79219 C 329.912715 342.21239 331.447187 341.68719 333.041276 341.28809 L 393.601106 326.158689 C 389.335946 311.827488 372.791116 303.734987 355.887293 307.957388 L 353.072365 308.660688 Z M 353.069773 308.659388 " transform="matrix(3.014065,0,0,3.004807,-904.10096,-909.735468)"/>
<path style=" stroke:none;fill-rule:evenodd;fill:rgb(89.7995%,78.819275%,39.219666%);fill-opacity:1;" d="M 252.457031 263.582031 C 249.941406 268.4375 244.070312 258.796875 239.988281 260.664062 C 235.902344 262.535156 235.285156 275.144531 231.191406 273.3125 C 227.097656 271.484375 231.871094 260.730469 229.332031 255.898438 C 226.792969 251.066406 217.988281 254.144531 217.972656 248.160156 C 217.960938 242.171875 226.777344 245.167969 229.292969 240.3125 C 231.808594 235.457031 226.984375 224.75 231.070312 222.882812 C 235.152344 221.011719 235.832031 233.617188 239.925781 235.449219 C 244.019531 237.277344 249.839844 227.582031 252.378906 232.414062 C 254.917969 237.242188 246.519531 242.039062 246.535156 248.023438 C 246.550781 254.011719 254.972656 258.726562 252.457031 263.582031 Z M 252.457031 263.582031 "/>
<path style=" stroke:none;fill-rule:nonzero;fill:rgb(39.99939%,39.99939%,35.688782%);fill-opacity:1;" d="M 249.6875 265.351562 C 249.394531 265.273438 249.082031 265.15625 248.75 265 C 248.625 264.941406 248.535156 264.847656 248.488281 264.714844 C 248.441406 264.585938 248.449219 264.457031 248.507812 264.332031 C 248.566406 264.207031 248.660156 264.117188 248.792969 264.070312 C 248.921875 264.023438 249.050781 264.03125 249.179688 264.089844 C 249.457031 264.21875 249.710938 264.316406 249.945312 264.378906 C 250.078125 264.414062 250.183594 264.492188 250.253906 264.609375 C 250.320312 264.730469 250.339844 264.859375 250.304688 264.992188 C 250.269531 265.125 250.191406 265.230469 250.070312 265.296875 C 249.949219 265.367188 249.820312 265.386719 249.6875 265.351562 Z M 246.847656 263.878906 C 246.644531 263.742188 246.347656 263.539062 245.960938 263.269531 C 245.847656 263.191406 245.777344 263.082031 245.753906 262.945312 C 245.730469 262.808594 245.757812 262.683594 245.835938 262.570312 C 245.914062 262.453125 246.023438 262.386719 246.160156 262.359375 C 246.296875 262.335938 246.425781 262.363281 246.539062 262.445312 C 246.917969 262.707031 247.207031 262.90625 247.410156 263.042969 C 247.527344 263.121094 247.597656 263.226562 247.625 263.363281 C 247.652344 263.5 247.625 263.625 247.546875 263.742188 C 247.46875 263.855469 247.363281 263.925781 247.226562 263.953125 C 247.089844 263.980469 246.960938 263.953125 246.847656 263.878906 Z M 244.273438 262.136719 C 243.976562 261.953125 243.703125 261.789062 243.449219 261.652344 C 243.324219 261.585938 243.242188 261.488281 243.203125 261.355469 C 243.164062 261.222656 243.175781 261.09375 243.242188 260.972656 C 243.308594 260.847656 243.410156 260.769531 243.542969 260.726562 C 243.675781 260.6875 243.804688 260.703125 243.925781 260.769531 C 244.203125 260.914062 244.496094 261.085938 244.8125 261.285156 C 244.929688 261.359375 245.003906 261.460938 245.035156 261.597656 C 245.066406 261.734375 245.046875 261.859375 244.972656 261.976562 C 244.898438 262.097656 244.792969 262.171875 244.65625 262.203125 C 244.519531 262.230469 244.394531 262.210938 244.273438 262.136719 Z M 241.613281 260.964844 C 241.316406 260.914062 241.035156 260.910156 240.777344 260.949219 C 240.640625 260.96875 240.515625 260.9375 240.402344 260.855469 C 240.289062 260.773438 240.222656 260.664062 240.203125 260.527344 C 240.183594 260.390625 240.214844 260.265625 240.296875 260.152344 C 240.378906 260.039062 240.488281 259.976562 240.628906 259.953125 C 240.992188 259.898438 241.375 259.90625 241.777344 259.972656 C 241.914062 259.992188 242.023438 260.0625 242.105469 260.171875 C 242.1875 260.285156 242.214844 260.410156 242.195312 260.546875 C 242.171875 260.6875 242.105469 260.796875 241.992188 260.875 C 241.878906 260.957031 241.75 260.988281 241.613281 260.964844 Z M 239.421875 261.667969 C 239.222656 261.859375 239.023438 262.089844 238.828125 262.359375 C 238.746094 262.46875 238.636719 262.539062 238.5 262.558594 C 238.359375 262.582031 238.234375 262.550781 238.121094 262.46875 C 238.007812 262.386719 237.941406 262.277344 237.921875 262.140625 C 237.898438 262.003906 237.929688 261.878906 238.011719 261.765625 C 238.242188 261.449219 238.480469 261.171875 238.722656 260.941406 C 238.824219 260.84375 238.941406 260.796875 239.082031 260.800781 C 239.222656 260.804688 239.339844 260.855469 239.4375 260.957031 C 239.53125 261.054688 239.578125 261.175781 239.578125 261.3125 C 239.574219 261.453125 239.523438 261.570312 239.421875 261.667969 Z M 237.78125 264.191406 C 237.65625 264.460938 237.527344 264.753906 237.394531 265.070312 C 237.339844 265.199219 237.246094 265.289062 237.117188 265.34375 C 236.988281 265.394531 236.859375 265.394531 236.734375 265.339844 C 236.605469 265.285156 236.511719 265.195312 236.460938 265.066406 C 236.40625 264.9375 236.40625 264.808594 236.460938 264.679688 C 236.601562 264.351562 236.734375 264.046875 236.867188 263.765625 C 236.925781 263.640625 237.019531 263.554688 237.152344 263.507812 C 237.285156 263.460938 237.414062 263.464844 237.539062 263.523438 C 237.664062 263.582031 237.75 263.675781 237.800781 263.808594 C 237.847656 263.9375 237.839844 264.066406 237.78125 264.191406 Z M 236.660156 266.949219 L 236.640625 266.992188 L 236.304688 267.910156 C 236.253906 268.039062 236.167969 268.136719 236.042969 268.191406 C 235.914062 268.25 235.785156 268.257812 235.65625 268.207031 C 235.523438 268.160156 235.429688 268.074219 235.371094 267.949219 C 235.3125 267.820312 235.308594 267.691406 235.355469 267.5625 L 235.695312 266.640625 L 235.710938 266.597656 C 235.761719 266.46875 235.847656 266.375 235.976562 266.316406 C 236.101562 266.257812 236.230469 266.253906 236.359375 266.300781 C 236.492188 266.351562 236.585938 266.4375 236.644531 266.5625 C 236.703125 266.691406 236.707031 266.816406 236.660156 266.949219 Z M 235.523438 269.957031 C 235.375 270.320312 235.234375 270.652344 235.097656 270.945312 C 235.039062 271.074219 234.945312 271.160156 234.8125 271.207031 C 234.683594 271.257812 234.554688 271.25 234.429688 271.195312 C 234.300781 271.136719 234.214844 271.042969 234.164062 270.910156 C 234.117188 270.78125 234.121094 270.652344 234.179688 270.527344 C 234.308594 270.246094 234.445312 269.929688 234.585938 269.582031 C 234.640625 269.453125 234.730469 269.359375 234.859375 269.304688 C 234.984375 269.25 235.113281 269.25 235.246094 269.304688 C 235.375 269.355469 235.464844 269.445312 235.519531 269.574219 C 235.574219 269.703125 235.574219 269.828125 235.523438 269.957031 Z M 234.152344 272.632812 C 233.855469 273.046875 233.542969 273.367188 233.21875 273.59375 C 233.105469 273.671875 232.976562 273.699219 232.839844 273.671875 C 232.703125 273.648438 232.59375 273.578125 232.515625 273.464844 C 232.4375 273.351562 232.410156 273.222656 232.433594 273.085938 C 232.460938 272.949219 232.527344 272.84375 232.644531 272.765625 C 232.871094 272.605469 233.101562 272.367188 233.332031 272.042969 C 233.414062 271.929688 233.523438 271.863281 233.660156 271.839844 C 233.800781 271.820312 233.925781 271.847656 234.039062 271.929688 C 234.152344 272.007812 234.21875 272.117188 234.242188 272.253906 C 234.265625 272.394531 234.234375 272.519531 234.152344 272.632812 Z M 230.683594 273.617188 C 230.34375 273.417969 230.054688 273.152344 229.816406 272.824219 C 229.734375 272.710938 229.707031 272.585938 229.726562 272.449219 C 229.75 272.3125 229.816406 272.203125 229.929688 272.121094 C 230.042969 272.039062 230.167969 272.007812 230.304688 272.03125 C 230.441406 272.054688 230.550781 272.121094 230.632812 272.234375 C 230.792969 272.449219 230.980469 272.621094 231.199219 272.753906 C 231.320312 272.824219 231.398438 272.925781 231.429688 273.0625 C 231.464844 273.195312 231.449219 273.324219 231.375 273.441406 C 231.304688 273.5625 231.203125 273.636719 231.066406 273.671875 C 230.933594 273.707031 230.804688 273.6875 230.683594 273.617188 Z M 229.027344 270.53125 C 228.992188 270.242188 228.96875 269.929688 228.957031 269.59375 C 228.953125 269.457031 229 269.335938 229.09375 269.234375 C 229.1875 269.132812 229.304688 269.078125 229.445312 269.074219 C 229.585938 269.070312 229.707031 269.117188 229.808594 269.210938 C 229.910156 269.304688 229.960938 269.421875 229.964844 269.5625 C 229.976562 269.867188 229.996094 270.152344 230.027344 270.410156 C 230.046875 270.546875 230.011719 270.671875 229.925781 270.78125 C 229.839844 270.890625 229.726562 270.953125 229.589844 270.972656 C 229.449219 270.988281 229.328125 270.953125 229.214844 270.867188 C 229.105469 270.78125 229.042969 270.667969 229.027344 270.53125 Z M 229.007812 267.550781 C 229.03125 267.226562 229.0625 266.863281 229.097656 266.460938 C 229.113281 266.324219 229.171875 266.210938 229.28125 266.121094 C 229.386719 266.035156 229.511719 265.996094 229.648438 266.007812 C 229.789062 266.019531 229.902344 266.082031 229.992188 266.1875 C 230.078125 266.296875 230.117188 266.417969 230.105469 266.554688 C 230.066406 266.945312 230.039062 267.300781 230.015625 267.617188 C 230.007812 267.757812 229.949219 267.871094 229.84375 267.964844 C 229.738281 268.054688 229.617188 268.097656 229.480469 268.085938 C 229.339844 268.078125 229.222656 268.019531 229.132812 267.914062 C 229.039062 267.808594 229 267.6875 229.007812 267.550781 Z M 229.328125 264.265625 L 229.394531 263.625 L 229.4375 263.164062 C 229.453125 263.023438 229.511719 262.910156 229.621094 262.824219 C 229.726562 262.734375 229.851562 262.699219 229.992188 262.710938 C 230.128906 262.722656 230.242188 262.785156 230.332031 262.890625 C 230.417969 263 230.457031 263.121094 230.445312 263.261719 L 230.398438 263.726562 L 230.332031 264.367188 C 230.316406 264.503906 230.253906 264.617188 230.148438 264.707031 C 230.039062 264.792969 229.914062 264.832031 229.777344 264.816406 C 229.636719 264.800781 229.523438 264.742188 229.4375 264.632812 C 229.347656 264.523438 229.3125 264.402344 229.328125 264.265625 Z M 229.59375 261.007812 C 229.609375 260.644531 229.617188 260.296875 229.613281 259.976562 C 229.613281 259.835938 229.664062 259.71875 229.761719 259.617188 C 229.859375 259.519531 229.976562 259.46875 230.117188 259.46875 C 230.257812 259.46875 230.375 259.515625 230.472656 259.613281 C 230.574219 259.710938 230.625 259.828125 230.625 259.96875 C 230.625 260.308594 230.621094 260.667969 230.605469 261.050781 C 230.597656 261.1875 230.542969 261.304688 230.441406 261.398438 C 230.339844 261.492188 230.21875 261.535156 230.078125 261.53125 C 229.9375 261.523438 229.824219 261.472656 229.726562 261.367188 C 229.632812 261.265625 229.589844 261.144531 229.59375 261.007812 Z M 229.476562 258.066406 C 229.429688 257.765625 229.371094 257.484375 229.300781 257.21875 C 229.265625 257.085938 229.28125 256.957031 229.351562 256.835938 C 229.421875 256.714844 229.523438 256.636719 229.65625 256.601562 C 229.792969 256.566406 229.917969 256.582031 230.039062 256.652344 C 230.160156 256.722656 230.238281 256.824219 230.277344 256.957031 C 230.355469 257.257812 230.421875 257.574219 230.476562 257.914062 C 230.496094 258.050781 230.46875 258.175781 230.382812 258.289062 C 230.300781 258.398438 230.191406 258.464844 230.054688 258.488281 C 229.917969 258.507812 229.792969 258.476562 229.679688 258.394531 C 229.566406 258.3125 229.5 258.203125 229.476562 258.066406 Z M 228.621094 255.699219 C 228.449219 255.449219 228.25 255.21875 228.019531 255.007812 C 227.917969 254.914062 227.863281 254.796875 227.859375 254.65625 C 227.855469 254.519531 227.898438 254.398438 227.992188 254.296875 C 228.085938 254.195312 228.203125 254.140625 228.34375 254.136719 C 228.484375 254.128906 228.605469 254.175781 228.707031 254.269531 C 228.988281 254.53125 229.238281 254.816406 229.453125 255.128906 C 229.535156 255.242188 229.5625 255.367188 229.535156 255.503906 C 229.511719 255.640625 229.441406 255.75 229.324219 255.828125 C 229.210938 255.90625 229.085938 255.933594 228.945312 255.910156 C 228.808594 255.882812 228.703125 255.8125 228.621094 255.699219 Z M 226.453125 254.023438 C 226.171875 253.902344 225.859375 253.789062 225.519531 253.679688 C 225.386719 253.636719 225.289062 253.554688 225.226562 253.429688 C 225.160156 253.308594 225.152344 253.179688 225.195312 253.046875 C 225.234375 252.914062 225.320312 252.816406 225.441406 252.753906 C 225.566406 252.6875 225.695312 252.679688 225.828125 252.71875 C 226.199219 252.839844 226.542969 252.964844 226.855469 253.101562 C 226.984375 253.15625 227.074219 253.25 227.125 253.378906 C 227.175781 253.507812 227.171875 253.636719 227.117188 253.761719 C 227.0625 253.890625 226.96875 253.980469 226.839844 254.03125 C 226.707031 254.082031 226.578125 254.078125 226.453125 254.023438 Z M 223.496094 253.15625 L 222.457031 252.921875 C 222.320312 252.890625 222.214844 252.816406 222.140625 252.699219 C 222.066406 252.582031 222.042969 252.453125 222.074219 252.316406 C 222.105469 252.183594 222.179688 252.078125 222.296875 252.003906 C 222.417969 251.929688 222.542969 251.910156 222.679688 251.9375 L 223.71875 252.175781 C 223.855469 252.207031 223.960938 252.28125 224.035156 252.398438 C 224.109375 252.515625 224.128906 252.640625 224.097656 252.777344 C 224.066406 252.914062 223.992188 253.015625 223.875 253.089844 C 223.757812 253.164062 223.632812 253.1875 223.496094 253.15625 Z M 220.359375 252.296875 C 220.011719 252.15625 219.699219 252.003906 219.421875 251.835938 C 219.304688 251.761719 219.226562 251.660156 219.195312 251.523438 C 219.160156 251.390625 219.183594 251.261719 219.253906 251.144531 C 219.328125 251.023438 219.429688 250.949219 219.566406 250.917969 C 219.703125 250.882812 219.828125 250.902344 219.949219 250.976562 C 220.175781 251.117188 220.441406 251.246094 220.738281 251.363281 C 220.867188 251.417969 220.957031 251.507812 221.011719 251.632812 C 221.066406 251.761719 221.070312 251.890625 221.015625 252.019531 C 220.964844 252.148438 220.875 252.238281 220.746094 252.292969 C 220.617188 252.347656 220.488281 252.351562 220.359375 252.296875 Z M 217.933594 250.28125 C 217.753906 249.9375 217.628906 249.554688 217.554688 249.136719 C 217.527344 249 217.554688 248.875 217.636719 248.761719 C 217.714844 248.648438 217.824219 248.578125 217.960938 248.554688 C 218.097656 248.527344 218.222656 248.554688 218.339844 248.636719 C 218.453125 248.714844 218.523438 248.824219 218.546875 248.960938 C 218.605469 249.277344 218.699219 249.566406 218.832031 249.824219 C 218.894531 249.949219 218.90625 250.074219 218.863281 250.207031 C 218.820312 250.339844 218.738281 250.4375 218.613281 250.5 C 218.488281 250.566406 218.359375 250.574219 218.226562 250.53125 C 218.09375 250.488281 217.996094 250.40625 217.933594 250.28125 Z M 217.722656 246.511719 C 217.847656 246.140625 218.027344 245.804688 218.253906 245.5 C 218.335938 245.390625 218.449219 245.324219 218.585938 245.304688 C 218.722656 245.28125 218.847656 245.3125 218.960938 245.398438 C 219.070312 245.480469 219.136719 245.589844 219.160156 245.726562 C 219.179688 245.867188 219.148438 245.992188 219.0625 246.101562 C 218.898438 246.324219 218.769531 246.566406 218.675781 246.839844 C 218.628906 246.972656 218.542969 247.066406 218.417969 247.128906 C 218.292969 247.1875 218.164062 247.195312 218.035156 247.152344 C 217.902344 247.105469 217.804688 247.019531 217.746094 246.894531 C 217.683594 246.769531 217.675781 246.640625 217.722656 246.511719 Z M 219.910156 244.191406 C 220.199219 244.046875 220.527344 243.914062 220.890625 243.789062 C 221.023438 243.746094 221.152344 243.753906 221.277344 243.816406 C 221.402344 243.875 221.488281 243.972656 221.53125 244.105469 C 221.578125 244.234375 221.570312 244.363281 221.507812 244.488281 C 221.445312 244.613281 221.351562 244.699219 221.21875 244.742188 C 220.894531 244.855469 220.605469 244.972656 220.355469 245.09375 C 220.230469 245.15625 220.101562 245.164062 219.96875 245.117188 C 219.835938 245.074219 219.738281 244.988281 219.679688 244.863281 C 219.617188 244.738281 219.609375 244.613281 219.652344 244.480469 C 219.699219 244.347656 219.785156 244.253906 219.910156 244.191406 Z M 223 243.21875 L 224.039062 242.972656 C 224.175781 242.941406 224.300781 242.960938 224.421875 243.035156 C 224.539062 243.109375 224.613281 243.210938 224.648438 243.347656 C 224.679688 243.484375 224.660156 243.609375 224.585938 243.726562 C 224.511719 243.847656 224.40625 243.921875 224.273438 243.953125 L 223.234375 244.199219 C 223.097656 244.230469 222.972656 244.210938 222.851562 244.136719 C 222.734375 244.066406 222.65625 243.960938 222.625 243.824219 C 222.59375 243.691406 222.613281 243.5625 222.6875 243.445312 C 222.761719 243.328125 222.863281 243.253906 223 243.21875 Z M 226.007812 242.386719 C 226.328125 242.261719 226.625 242.128906 226.890625 241.988281 C 227.011719 241.921875 227.140625 241.910156 227.273438 241.949219 C 227.40625 241.988281 227.507812 242.070312 227.574219 242.191406 C 227.636719 242.316406 227.652344 242.441406 227.609375 242.578125 C 227.570312 242.710938 227.488281 242.808594 227.367188 242.875 C 227.0625 243.035156 226.730469 243.1875 226.371094 243.324219 C 226.238281 243.375 226.109375 243.371094 225.984375 243.316406 C 225.855469 243.257812 225.765625 243.167969 225.71875 243.035156 C 225.667969 242.90625 225.671875 242.777344 225.726562 242.652344 C 225.785156 242.523438 225.875 242.4375 226.007812 242.386719 Z M 228.324219 240.859375 C 228.527344 240.625 228.699219 240.363281 228.84375 240.082031 L 228.851562 240.070312 C 228.917969 239.945312 229.015625 239.863281 229.148438 239.824219 C 229.28125 239.78125 229.410156 239.792969 229.535156 239.859375 C 229.65625 239.925781 229.738281 240.023438 229.78125 240.15625 C 229.820312 240.289062 229.808594 240.417969 229.746094 240.539062 L 229.742188 240.542969 C 229.5625 240.894531 229.347656 241.214844 229.097656 241.507812 C 229.007812 241.617188 228.890625 241.675781 228.753906 241.6875 C 228.613281 241.699219 228.492188 241.660156 228.386719 241.570312 C 228.277344 241.480469 228.21875 241.367188 228.207031 241.226562 C 228.195312 241.089844 228.234375 240.964844 228.324219 240.859375 Z M 229.359375 238.546875 C 229.414062 238.269531 229.457031 237.972656 229.492188 237.65625 C 229.503906 237.515625 229.566406 237.402344 229.671875 237.316406 C 229.78125 237.226562 229.90625 237.191406 230.042969 237.203125 C 230.183594 237.21875 230.296875 237.277344 230.382812 237.386719 C 230.472656 237.496094 230.507812 237.617188 230.496094 237.757812 C 230.460938 238.101562 230.410156 238.433594 230.351562 238.742188 C 230.324219 238.878906 230.25 238.984375 230.136719 239.0625 C 230.019531 239.140625 229.894531 239.164062 229.757812 239.136719 C 229.621094 239.109375 229.511719 239.039062 229.433594 238.921875 C 229.355469 238.808594 229.332031 238.683594 229.359375 238.546875 Z M 229.550781 235.683594 C 229.542969 235.355469 229.523438 235.003906 229.5 234.632812 C 229.492188 234.492188 229.53125 234.371094 229.625 234.265625 C 229.714844 234.164062 229.832031 234.105469 229.972656 234.097656 C 230.109375 234.089844 230.230469 234.128906 230.335938 234.222656 C 230.441406 234.3125 230.5 234.429688 230.507812 234.566406 C 230.53125 234.953125 230.550781 235.316406 230.558594 235.660156 C 230.5625 235.796875 230.515625 235.917969 230.421875 236.019531 C 230.324219 236.117188 230.207031 236.171875 230.066406 236.175781 C 229.929688 236.179688 229.808594 236.132812 229.707031 236.035156 C 229.605469 235.941406 229.554688 235.824219 229.550781 235.683594 Z M 229.304688 232.460938 L 229.183594 231.359375 C 229.167969 231.222656 229.203125 231.097656 229.289062 230.992188 C 229.378906 230.882812 229.492188 230.820312 229.628906 230.804688 C 229.769531 230.789062 229.890625 230.824219 230 230.914062 C 230.109375 231 230.171875 231.113281 230.1875 231.25 L 230.308594 232.347656 C 230.324219 232.488281 230.289062 232.609375 230.199219 232.71875 C 230.113281 232.828125 230 232.890625 229.863281 232.90625 C 229.722656 232.921875 229.597656 232.882812 229.488281 232.796875 C 229.382812 232.710938 229.320312 232.597656 229.304688 232.460938 Z M 228.957031 229.164062 C 228.921875 228.777344 228.894531 228.421875 228.878906 228.097656 C 228.871094 227.957031 228.914062 227.835938 229.007812 227.734375 C 229.101562 227.628906 229.214844 227.574219 229.355469 227.566406 C 229.496094 227.558594 229.617188 227.601562 229.71875 227.695312 C 229.824219 227.789062 229.878906 227.90625 229.886719 228.042969 C 229.902344 228.359375 229.929688 228.703125 229.960938 229.078125 C 229.972656 229.214844 229.933594 229.339844 229.84375 229.445312 C 229.753906 229.550781 229.640625 229.609375 229.5 229.621094 C 229.363281 229.632812 229.238281 229.59375 229.132812 229.507812 C 229.027344 229.417969 228.96875 229.300781 228.957031 229.164062 Z M 228.878906 226.109375 C 228.90625 225.707031 228.957031 225.34375 229.027344 225.007812 C 229.054688 224.875 229.128906 224.765625 229.242188 224.691406 C 229.359375 224.613281 229.488281 224.589844 229.625 224.621094 C 229.761719 224.648438 229.867188 224.722656 229.941406 224.835938 C 230.019531 224.953125 230.042969 225.082031 230.015625 225.214844 C 229.953125 225.503906 229.910156 225.824219 229.886719 226.179688 C 229.875 226.320312 229.816406 226.433594 229.710938 226.523438 C 229.605469 226.617188 229.484375 226.65625 229.34375 226.648438 C 229.207031 226.636719 229.089844 226.578125 229 226.476562 C 228.910156 226.371094 228.867188 226.246094 228.878906 226.109375 Z M 230.109375 222.917969 C 230.328125 222.714844 230.578125 222.550781 230.859375 222.421875 C 230.976562 222.371094 231.089844 222.324219 231.207031 222.289062 C 231.339844 222.25 231.46875 222.261719 231.589844 222.328125 C 231.714844 222.394531 231.796875 222.492188 231.835938 222.625 C 231.875 222.757812 231.863281 222.886719 231.800781 223.007812 C 231.734375 223.132812 231.632812 223.210938 231.5 223.253906 C 231.429688 223.273438 231.355469 223.304688 231.28125 223.339844 C 231.097656 223.421875 230.933594 223.527344 230.789062 223.660156 C 230.6875 223.753906 230.566406 223.796875 230.425781 223.792969 C 230.289062 223.785156 230.171875 223.730469 230.078125 223.628906 C 229.984375 223.527344 229.9375 223.40625 229.945312 223.265625 C 229.953125 223.128906 230.007812 223.011719 230.109375 222.917969 Z M 233.632812 223.050781 C 233.859375 223.289062 234.085938 223.585938 234.304688 223.9375 C 234.378906 224.058594 234.398438 224.183594 234.367188 224.320312 C 234.335938 224.453125 234.261719 224.558594 234.144531 224.632812 C 234.027344 224.707031 233.898438 224.726562 233.761719 224.695312 C 233.628906 224.664062 233.523438 224.589844 233.449219 224.472656 C 233.261719 224.175781 233.078125 223.933594 232.898438 223.742188 C 232.800781 223.640625 232.757812 223.519531 232.761719 223.378906 C 232.765625 223.242188 232.816406 223.125 232.917969 223.027344 C 233.019531 222.933594 233.140625 222.886719 233.28125 222.890625 C 233.417969 222.894531 233.535156 222.949219 233.632812 223.050781 Z M 235.21875 225.734375 C 235.351562 226.035156 235.492188 226.378906 235.640625 226.757812 C 235.691406 226.886719 235.691406 227.015625 235.632812 227.140625 C 235.578125 227.269531 235.484375 227.359375 235.355469 227.410156 C 235.226562 227.460938 235.097656 227.457031 234.96875 227.402344 C 234.84375 227.347656 234.753906 227.253906 234.703125 227.125 C 234.554688 226.753906 234.417969 226.421875 234.292969 226.132812 C 234.238281 226.003906 234.234375 225.875 234.285156 225.746094 C 234.335938 225.617188 234.425781 225.527344 234.554688 225.46875 C 234.683594 225.414062 234.8125 225.414062 234.941406 225.464844 C 235.070312 225.515625 235.164062 225.605469 235.21875 225.734375 Z M 236.402344 228.757812 L 236.558594 229.179688 L 236.765625 229.71875 C 236.816406 229.847656 236.8125 229.976562 236.753906 230.101562 C 236.695312 230.230469 236.601562 230.316406 236.472656 230.367188 C 236.34375 230.417969 236.214844 230.414062 236.085938 230.355469 C 235.960938 230.296875 235.871094 230.207031 235.820312 230.074219 L 235.613281 229.535156 L 235.457031 229.113281 C 235.40625 228.980469 235.410156 228.851562 235.46875 228.726562 C 235.527344 228.601562 235.621094 228.511719 235.75 228.464844 C 235.882812 228.414062 236.011719 228.417969 236.136719 228.476562 C 236.265625 228.535156 236.351562 228.628906 236.402344 228.757812 Z M 237.523438 231.550781 C 237.667969 231.875 237.808594 232.167969 237.949219 232.441406 C 238.015625 232.5625 238.023438 232.691406 237.984375 232.824219 C 237.941406 232.957031 237.859375 233.054688 237.734375 233.117188 C 237.609375 233.183594 237.480469 233.191406 237.347656 233.152344 C 237.214844 233.109375 237.117188 233.027344 237.054688 232.902344 C 236.90625 232.617188 236.753906 232.304688 236.601562 231.964844 C 236.546875 231.839844 236.542969 231.710938 236.589844 231.582031 C 236.640625 231.449219 236.726562 231.355469 236.855469 231.300781 C 236.980469 231.242188 237.109375 231.238281 237.242188 231.289062 C 237.371094 231.335938 237.464844 231.425781 237.523438 231.550781 Z M 239.085938 234.171875 C 239.285156 234.398438 239.492188 234.585938 239.695312 234.734375 C 239.808594 234.816406 239.878906 234.925781 239.898438 235.0625 C 239.921875 235.199219 239.894531 235.324219 239.8125 235.4375 C 239.730469 235.550781 239.621094 235.617188 239.484375 235.640625 C 239.34375 235.664062 239.21875 235.632812 239.105469 235.550781 C 238.839844 235.359375 238.578125 235.121094 238.328125 234.839844 C 238.234375 234.734375 238.195312 234.613281 238.203125 234.472656 C 238.210938 234.335938 238.265625 234.21875 238.371094 234.128906 C 238.476562 234.035156 238.597656 233.992188 238.738281 234.003906 C 238.875 234.011719 238.992188 234.066406 239.085938 234.171875 Z M 241.167969 235.175781 C 241.441406 235.160156 241.738281 235.105469 242.054688 235.007812 C 242.1875 234.96875 242.316406 234.980469 242.441406 235.042969 C 242.5625 235.109375 242.644531 235.207031 242.6875 235.339844 C 242.726562 235.472656 242.714844 235.601562 242.652344 235.722656 C 242.585938 235.847656 242.488281 235.929688 242.355469 235.96875 C 241.953125 236.09375 241.574219 236.164062 241.210938 236.179688 C 241.074219 236.1875 240.953125 236.144531 240.847656 236.050781 C 240.746094 235.957031 240.691406 235.839844 240.683594 235.699219 C 240.679688 235.5625 240.722656 235.441406 240.816406 235.335938 C 240.910156 235.234375 241.027344 235.179688 241.167969 235.175781 Z M 243.835938 234.164062 C 244.085938 234.011719 244.363281 233.835938 244.667969 233.632812 C 244.78125 233.554688 244.90625 233.527344 245.042969 233.554688 C 245.183594 233.582031 245.289062 233.652344 245.367188 233.769531 C 245.445312 233.882812 245.46875 234.011719 245.441406 234.144531 C 245.417969 234.28125 245.34375 234.390625 245.230469 234.46875 C 244.914062 234.679688 244.621094 234.863281 244.355469 235.023438 C 244.238281 235.097656 244.109375 235.117188 243.972656 235.082031 C 243.839844 235.050781 243.734375 234.972656 243.664062 234.855469 C 243.589844 234.734375 243.570312 234.609375 243.605469 234.472656 C 243.636719 234.339844 243.714844 234.234375 243.835938 234.164062 Z M 246.347656 232.460938 C 246.714844 232.203125 247.03125 231.988281 247.289062 231.820312 C 247.40625 231.746094 247.535156 231.71875 247.671875 231.75 C 247.804688 231.777344 247.914062 231.851562 247.988281 231.964844 C 248.066406 232.082031 248.089844 232.207031 248.058594 232.34375 C 248.03125 232.480469 247.960938 232.585938 247.84375 232.664062 C 247.589844 232.828125 247.285156 233.035156 246.925781 233.285156 C 246.8125 233.363281 246.6875 233.394531 246.550781 233.367188 C 246.414062 233.34375 246.304688 233.277344 246.222656 233.164062 C 246.144531 233.046875 246.117188 232.921875 246.140625 232.785156 C 246.164062 232.648438 246.234375 232.542969 246.347656 232.460938 Z M 249.171875 230.808594 C 249.535156 230.671875 249.875 230.589844 250.191406 230.558594 C 250.328125 230.542969 250.453125 230.582031 250.5625 230.671875 C 250.667969 230.757812 250.730469 230.871094 250.742188 231.011719 C 250.753906 231.148438 250.71875 231.273438 250.628906 231.378906 C 250.542969 231.484375 250.425781 231.546875 250.289062 231.558594 C 250.0625 231.582031 249.808594 231.644531 249.527344 231.75 C 249.398438 231.800781 249.269531 231.796875 249.144531 231.738281 C 249.015625 231.683594 248.925781 231.589844 248.878906 231.460938 C 248.828125 231.328125 248.832031 231.199219 248.890625 231.074219 C 248.945312 230.949219 249.039062 230.859375 249.171875 230.808594 Z M 252.449219 231.582031 C 252.585938 231.757812 252.710938 231.957031 252.828125 232.179688 C 252.933594 232.378906 253.023438 232.582031 253.097656 232.789062 C 253.144531 232.917969 253.136719 233.046875 253.078125 233.171875 C 253.019531 233.300781 252.921875 233.386719 252.792969 233.433594 C 252.660156 233.480469 252.53125 233.472656 252.40625 233.414062 C 252.28125 233.355469 252.195312 233.261719 252.144531 233.128906 C 252.085938 232.964844 252.015625 232.804688 251.933594 232.644531 C 251.84375 232.472656 251.746094 232.320312 251.644531 232.191406 C 251.5625 232.078125 251.527344 231.953125 251.546875 231.816406 C 251.566406 231.679688 251.632812 231.570312 251.742188 231.484375 C 251.851562 231.398438 251.976562 231.367188 252.117188 231.386719 C 252.253906 231.40625 252.367188 231.46875 252.449219 231.582031 Z M 253.308594 235.039062 C 253.257812 235.394531 253.167969 235.761719 253.039062 236.140625 C 252.992188 236.269531 252.90625 236.367188 252.78125 236.429688 C 252.65625 236.492188 252.53125 236.5 252.398438 236.453125 C 252.265625 236.410156 252.167969 236.324219 252.105469 236.199219 C 252.046875 236.074219 252.035156 235.949219 252.082031 235.816406 C 252.191406 235.496094 252.265625 235.1875 252.308594 234.894531 C 252.328125 234.757812 252.394531 234.648438 252.507812 234.5625 C 252.621094 234.480469 252.742188 234.449219 252.882812 234.46875 C 253.019531 234.488281 253.128906 234.554688 253.214844 234.667969 C 253.296875 234.777344 253.328125 234.902344 253.308594 235.039062 Z M 252.183594 237.96875 C 252.023438 238.246094 251.839844 238.546875 251.632812 238.867188 C 251.558594 238.984375 251.449219 239.058594 251.316406 239.085938 C 251.179688 239.117188 251.050781 239.09375 250.933594 239.019531 C 250.816406 238.941406 250.746094 238.835938 250.714844 238.703125 C 250.683594 238.566406 250.707031 238.441406 250.785156 238.324219 C 250.980469 238.019531 251.15625 237.734375 251.308594 237.46875 C 251.375 237.347656 251.480469 237.269531 251.613281 237.234375 C 251.746094 237.195312 251.875 237.214844 251.996094 237.28125 C 252.117188 237.351562 252.195312 237.453125 252.234375 237.585938 C 252.269531 237.722656 252.253906 237.847656 252.183594 237.96875 Z M 250.421875 240.636719 L 249.816406 241.496094 C 249.738281 241.609375 249.628906 241.679688 249.492188 241.703125 C 249.355469 241.726562 249.230469 241.699219 249.113281 241.621094 C 249 241.539062 248.929688 241.433594 248.90625 241.296875 C 248.882812 241.160156 248.910156 241.03125 248.992188 240.917969 L 249.59375 240.058594 C 249.675781 239.945312 249.785156 239.875 249.921875 239.851562 C 250.058594 239.828125 250.183594 239.855469 250.296875 239.933594 C 250.410156 240.015625 250.480469 240.125 250.503906 240.261719 C 250.53125 240.398438 250.5 240.523438 250.421875 240.636719 Z M 248.675781 243.230469 C 248.492188 243.535156 248.324219 243.824219 248.171875 244.105469 C 248.109375 244.226562 248.007812 244.308594 247.875 244.351562 C 247.742188 244.390625 247.613281 244.378906 247.492188 244.3125 C 247.367188 244.25 247.285156 244.148438 247.246094 244.015625 C 247.203125 243.882812 247.214844 243.753906 247.28125 243.632812 C 247.441406 243.335938 247.617188 243.027344 247.8125 242.707031 C 247.886719 242.585938 247.988281 242.511719 248.125 242.480469 C 248.261719 242.445312 248.386719 242.464844 248.507812 242.539062 C 248.625 242.609375 248.703125 242.710938 248.734375 242.847656 C 248.769531 242.984375 248.75 243.109375 248.675781 243.230469 Z M 247.398438 245.878906 C 247.300781 246.183594 247.222656 246.484375 247.164062 246.777344 C 247.136719 246.914062 247.066406 247.019531 246.949219 247.097656 C 246.832031 247.175781 246.707031 247.199219 246.570312 247.171875 C 246.433594 247.144531 246.328125 247.074219 246.25 246.957031 C 246.171875 246.84375 246.144531 246.71875 246.171875 246.582031 C 246.238281 246.25 246.328125 245.910156 246.441406 245.566406 C 246.484375 245.4375 246.566406 245.339844 246.691406 245.273438 C 246.816406 245.210938 246.945312 245.203125 247.078125 245.246094 C 247.210938 245.289062 247.308594 245.371094 247.371094 245.496094 C 247.433594 245.621094 247.441406 245.746094 247.398438 245.878906 Z M 247.066406 248.59375 C 247.097656 248.890625 247.148438 249.191406 247.21875 249.496094 C 247.253906 249.632812 247.230469 249.757812 247.160156 249.875 C 247.085938 249.996094 246.980469 250.070312 246.84375 250.101562 C 246.710938 250.132812 246.582031 250.113281 246.464844 250.042969 C 246.34375 249.96875 246.269531 249.863281 246.238281 249.730469 C 246.15625 249.378906 246.097656 249.035156 246.0625 248.691406 C 246.050781 248.554688 246.085938 248.429688 246.175781 248.324219 C 246.261719 248.214844 246.378906 248.15625 246.515625 248.140625 C 246.65625 248.128906 246.777344 248.164062 246.886719 248.253906 C 246.992188 248.34375 247.054688 248.457031 247.066406 248.59375 Z M 247.863281 251.277344 C 247.996094 251.558594 248.148438 251.851562 248.316406 252.15625 C 248.386719 252.277344 248.402344 252.40625 248.363281 252.539062 C 248.324219 252.671875 248.246094 252.773438 248.125 252.839844 C 248.003906 252.910156 247.875 252.925781 247.742188 252.886719 C 247.605469 252.847656 247.507812 252.769531 247.4375 252.648438 C 247.253906 252.324219 247.09375 252.011719 246.949219 251.707031 C 246.890625 251.582031 246.882812 251.453125 246.929688 251.320312 C 246.976562 251.191406 247.0625 251.09375 247.191406 251.035156 C 247.316406 250.976562 247.445312 250.972656 247.574219 251.019531 C 247.707031 251.066406 247.800781 251.152344 247.863281 251.277344 Z M 249.410156 253.894531 C 249.578125 254.136719 249.777344 254.421875 250.011719 254.75 C 250.089844 254.863281 250.121094 254.988281 250.097656 255.125 C 250.074219 255.261719 250.003906 255.371094 249.890625 255.453125 C 249.777344 255.53125 249.652344 255.5625 249.511719 255.539062 C 249.375 255.515625 249.265625 255.445312 249.1875 255.332031 C 248.945312 254.992188 248.742188 254.703125 248.578125 254.460938 C 248.5 254.34375 248.472656 254.21875 248.5 254.082031 C 248.523438 253.945312 248.59375 253.839844 248.710938 253.761719 C 248.824219 253.683594 248.953125 253.65625 249.089844 253.679688 C 249.226562 253.707031 249.332031 253.777344 249.410156 253.894531 Z M 251.238281 256.480469 C 251.464844 256.808594 251.660156 257.105469 251.832031 257.375 C 251.910156 257.492188 251.929688 257.617188 251.902344 257.753906 C 251.871094 257.890625 251.796875 257.996094 251.679688 258.070312 C 251.5625 258.144531 251.433594 258.167969 251.296875 258.136719 C 251.160156 258.105469 251.054688 258.035156 250.980469 257.917969 C 250.816406 257.65625 250.625 257.367188 250.40625 257.050781 C 250.324219 256.9375 250.296875 256.808594 250.324219 256.671875 C 250.347656 256.539062 250.417969 256.429688 250.535156 256.351562 C 250.648438 256.273438 250.773438 256.246094 250.914062 256.269531 C 251.050781 256.296875 251.15625 256.367188 251.238281 256.480469 Z M 252.828125 259.175781 C 252.976562 259.511719 253.097656 259.835938 253.191406 260.148438 C 253.230469 260.28125 253.21875 260.410156 253.152344 260.53125 C 253.085938 260.65625 252.984375 260.734375 252.851562 260.773438 C 252.71875 260.8125 252.589844 260.800781 252.464844 260.734375 C 252.34375 260.667969 252.261719 260.566406 252.222656 260.433594 C 252.144531 260.164062 252.039062 259.878906 251.90625 259.585938 C 251.847656 259.457031 251.84375 259.332031 251.894531 259.199219 C 251.945312 259.070312 252.035156 258.976562 252.160156 258.921875 C 252.289062 258.863281 252.417969 258.859375 252.546875 258.910156 C 252.675781 258.960938 252.769531 259.050781 252.828125 259.175781 Z M 253.378906 262.378906 C 253.316406 262.765625 253.207031 263.140625 253.046875 263.507812 C 252.992188 263.636719 252.898438 263.726562 252.769531 263.777344 C 252.640625 263.828125 252.511719 263.824219 252.382812 263.769531 C 252.257812 263.714844 252.167969 263.621094 252.117188 263.492188 C 252.066406 263.363281 252.066406 263.234375 252.121094 263.109375 C 252.246094 262.820312 252.332031 262.527344 252.378906 262.226562 C 252.402344 262.089844 252.46875 261.980469 252.578125 261.898438 C 252.691406 261.816406 252.816406 261.785156 252.953125 261.804688 C 253.09375 261.828125 253.203125 261.894531 253.285156 262.003906 C 253.367188 262.117188 253.398438 262.242188 253.378906 262.378906 Z M 252.90625 263.8125 C 252.648438 264.304688 252.347656 264.6875 252.003906 264.960938 C 251.894531 265.046875 251.769531 265.082031 251.632812 265.066406 C 251.492188 265.050781 251.382812 264.988281 251.292969 264.878906 C 251.207031 264.769531 251.171875 264.644531 251.1875 264.507812 C 251.203125 264.371094 251.269531 264.257812 251.378906 264.171875 C 251.609375 263.988281 251.820312 263.714844 252.007812 263.351562 C 252.070312 263.226562 252.167969 263.144531 252.300781 263.101562 C 252.433594 263.058594 252.5625 263.070312 252.6875 263.132812 C 252.8125 263.199219 252.894531 263.296875 252.9375 263.429688 C 252.980469 263.5625 252.96875 263.6875 252.90625 263.8125 Z M 252.90625 263.8125 "/>
</g>
</svg>
